PathFileType	4	(X/Y/Z)	Kaydara																																																																																																																									
DataRate	CameraRate	NumFrames	NumMarkers	Units	OrigDataRate	OrigDataStartFrame	OrigNumFrames																																																																																																																					
30	30	4	41	mm	30	48	141																																																																																																																					
Frame#	Time	SALE_LFHD			SALE_RFHD			SALE_LBHD			SALE_RBHD			SALE_LFTShould			SALE_RFTShould			SALE_LRRShould			SALE_RRRShould			SALE_T10			SALE_STRN			SALE_TRUN			SALE_LSHO			SALE_LUPA			SALE_LELB			SALE_LFRM			SALE_LWRA			SALE_LWRB			SALE_LFIN			SALE_RSHO			SALE_RUPA			SALE_RELB			SALE_RFRM			SALE_RWRB			SALE_RFIN			SALE_LFWT			SALE_RFWT			SALE_LBWT			SALE_RBWT			SALE_LTHI			SALE_LKNE			SALE_RWRA			SALE_LSHN			SALE_LANK			SALE_LHEE			SALE_LTOE			SALE_RTHI			SALE_RKNE			SALE_RSHN			SALE_RANK			SALE_RHEE			SALE_RTOE		
		X1	Y1	Z1	X2	Y2	Z2	X3	Y3	Z3	X4	Y4	Z4	X5	Y5	Z5	X6	Y6	Z6	X7	Y7	Z7	X8	Y8	Z8	X9	Y9	Z9	X10	Y10	Z10	X11	Y11	Z11	X12	Y12	Z12	X13	Y13	Z13	X14	Y14	Z14	X15	Y15	Z15	X16	Y16	Z16	X17	Y17	Z17	X18	Y18	Z18	X19	Y19	Z19	X20	Y20	Z20	X21	Y21	Z21	X22	Y22	Z22	X23	Y23	Z23	X24	Y24	Z24	X25	Y25	Z25	X26	Y26	Z26	X27	Y27	Z27	X28	Y28	Z28	X29	Y29	Z29	X30	Y30	Z30	X31	Y31	Z31	X32	Y32	Z32	X33	Y33	Z33	X34	Y34	Z34	X35	Y35	Z35	X36	Y36	Z36	X37	Y37	Z37	X38	Y38	Z38	X39	Y39	Z39	X40	Y40	Z40	X41	Y41	Z41
																																																																																																																												
18	1.567	220.00387	1649.00925	-1997.35367	87.75306	1647.68692	-2004.36539	222.61686	1644.63928	-2133.75	94.96181	1640.75302	-2133.1749	229.97808	1404.80423	-2043.4938	92.14936	1402.93594	-2044.19373	225.54543	1446.18042	-2165.46356	76.33504	1451.96579	-2158.21533	148.60427	1287.82867	-2214.26773	157.19462	1339.88464	-1986.57654	154.99302	1257.24129	-1937.30545	346.03893	1423.26782	-2115.58411	390.11803	1206.55891	-2107.58972	374.9118	1096.26511	-2116.67648	403.71464	993.26469	-2076.44638	339.92325	861.49193	-2002.83554	407.6506	850.62843	-2038.62915	402.33002	811.91277	-1986.45691	-16.00534	1427.35168	-2109.14276	-53.3603	1195.28915	-2154.4574	-82.02881	1097.8302	-2102.8244	-75.30759	984.17778	-2104.87274	-95.17747	848.9946	-2048.2399	-106.1235	814.96651	-1992.10297	286.14857	975.41969	-2004.19403	5.73205	972.58537	-2020.43793	235.02214	1046.01448	-2170.28412	59.01871	1049.61716	-2180.51346	287.78568	676.02394	-2174.83917	274.11018	504.58195	-2100.03403	-52.06751	866.27808	-1994.21066	269.61317	310.13098	-2099.37164	264.96611	124.94612	-2147.81281	225.23903	74.97135	-2210.02975	237.60216	86.9479	-2012.70798	4.49341	724.00665	-2180.29968	23.41752	562.8125	-2076.90414	76.02293	376.08257	-2091.10626	33.39387	123.29545	-2143.95874	46.10767	80.79145	-2022.73834	83.03505	63.55872	-2212.37762
19	1.6	219.96223	1649.14825	-1997.19406	87.71744	1647.72873	-2004.24866	222.59151	1644.65683	-2133.65326	94.95674	1640.64285	-2133.03986	230.02453	1404.73846	-2043.27972	92.18199	1402.76901	-2044.03137	225.59181	1446.1145	-2165.2243	76.30929	1451.81442	-2157.98828	148.62175	1287.72507	-2213.89114	157.23894	1339.90036	-1986.30951	155.04248	1257.31346	-1936.92322	346.04454	1423.25058	-2115.52292	390.13603	1206.47743	-2107.50565	374.93885	1096.23413	-2116.62354	403.86391	993.20854	-2076.55594	340.23762	861.2352	-2003.10333	407.91672	850.50476	-2038.94104	402.69943	811.69426	-1986.85715	-15.96311	1427.24045	-2108.83148	-53.4706	1195.21103	-2154.09225	-82.22063	1097.72362	-2102.49481	-75.57345	984.16054	-2104.80423	-95.25753	848.90198	-2048.52341	-106.25322	814.62517	-1992.3114	286.18916	975.42953	-2003.72421	5.74614	972.54868	-2020.16281	235.06105	1045.87402	-2169.90601	59.12757	1049.4751	-2180.33722	287.45281	676.05148	-2174.27582	274.08432	504.73522	-2098.79913	-52.17908	865.87799	-1994.41513	269.45881	310.16943	-2099.21829	264.90438	125.05963	-2147.82425	225.15404	74.98683	-2210.01175	237.59928	86.94616	-2012.7066	4.52944	723.94127	-2179.98169	23.43675	562.80964	-2076.62888	76.09533	376.07361	-2090.91507	33.3935	123.29937	-2143.95706	46.13729	80.80347	-2022.77725	83.04261	63.57586	-2212.37473
20	1.633	219.9144	1649.20502	-1996.99997	87.68734	1647.74979	-2004.11499	222.68246	1644.63196	-2133.4491	95.05686	1640.61539	-2132.94952	230.00942	1404.65897	-2043.06122	92.19545	1402.5769	-2043.79929	225.5913	1446.05225	-2164.97559	76.31928	1451.70135	-2157.79236	148.66097	1287.6416	-2213.58917	157.26644	1339.80209	-1986.09604	155.09079	1257.20627	-1936.65802	346.11042	1423.35495	-2115.31097	390.20805	1206.50932	-2107.25479	375.05402	1096.27747	-2116.40884	404.05941	993.22105	-2076.51581	340.63808	861.10992	-2003.31085	408.27778	850.48706	-2039.17145	403.05439	811.55724	-1987.08771	-15.99863	1427.11914	-2108.56827	-53.87114	1195.10773	-2153.46451	-82.51908	1097.65762	-2101.75751	-75.98617	984.06258	-2104.24896	-95.74059	848.7738	-2048.42636	-106.54088	814.3428	-1992.22687	286.0146	975.43076	-2003.04031	5.49334	972.66655	-2019.96384	235.15623	1045.7412	-2169.4162	59.23544	1049.30931	-2180.14938	287.34528	676.03706	-2173.6969	273.79766	504.56314	-2098.97812	-52.77174	865.53558	-1994.35913	269.438	310.17387	-2098.95966	264.88581	124.98504	-2147.82089	225.12871	74.99554	-2210.01648	237.57706	86.93859	-2012.71576	4.67329	723.86528	-2179.61975	23.46347	562.80994	-2076.3118	76.06083	376.0096	-2090.5365	33.43756	123.30563	-2143.92029	46.1415	80.80267	-2022.73361	83.07498	63.56664	-2212.36572
21	1.667	219.98291	1649.13986	-1996.82144	87.66252	1647.83493	-2004.05869	222.77136	1644.58099	-2133.27347	95.14932	1640.65826	-2132.80319	230.00435	1404.69055	-2042.8447	92.13744	1402.49344	-2043.71231	225.599	1445.93323	-2164.7847	76.31717	1451.50513	-2157.76184	148.73641	1287.44308	-2213.30124	157.17505	1339.86069	-1985.93399	154.92359	1257.30919	-1936.29807	346.04897	1423.13202	-2114.77097	390.39028	1206.51291	-2106.93222	375.26585	1096.30714	-2116.15707	404.32617	993.23441	-2076.36322	340.99407	860.95131	-2003.37173	408.68385	850.49171	-2039.25232	403.43201	811.42578	-1987.16309	-15.99912	1426.98059	-2108.49792	-54.31426	1194.93713	-2152.90802	-82.80419	1097.70645	-2100.91049	-76.49273	984.12178	-2103.57483	-96.49014	848.74969	-2048.21777	-107.11567	814.19533	-1991.87744	285.81177	975.44731	-2002.27127	5.42746	972.68639	-2019.64188	235.24012	1045.59837	-2168.82996	59.34151	1049.17847	-2179.83795	287.4719	676.0817	-2172.97058	273.92879	504.66743	-2097.96631	-53.11196	865.20653	-1994.05487	269.4029	310.20119	-2098.65219	264.90252	125.03078	-2147.72903	225.1823	75.02039	-2210.01144	237.5749	86.95411	-2012.69638	4.73491	723.77052	-2179.16626	23.47121	562.76379	-2075.92331	76.12234	375.92777	-2090.20111	33.47586	123.29185	-2143.87939	46.16372	80.81353	-2022.7417	83.08479	63.61413	-2212.3587
